<svg xmlns="http://www.w3.org/2000/svg" width="1200" height="630" viewBox="0 0 1200 630" role="img" aria-label="Royal Pet Clinic  Veterinary Management System">
  <defs>
    <linearGradient id="bg" x1="0%" y1="0%" x2="100%" y2="100%">
      <stop offset="0%" stop-color="#0a1824"/>
      <stop offset="45%" stop-color="#122a3d"/>
      <stop offset="100%" stop-color="#0f2e35"/>
    </linearGradient>
    <linearGradient id="gold" x1="0%" y1="0%" x2="100%" y2="100%">
      <stop offset="0%" stop-color="#c9973a"/>
      <stop offset="100%" stop-color="#e8bb6e"/>
    </linearGradient>
    <radialGradient id="glow-teal" cx="20%" cy="10%" r="45%">
      <stop offset="0%" stop-color="#2d9c9c" stop-opacity=".35"/>
      <stop offset="100%" stop-color="#2d9c9c" stop-opacity="0"/>
    </radialGradient>
    <radialGradient id="glow-gold" cx="90%" cy="90%" r="40%">
      <stop offset="0%" stop-color="#c9973a" stop-opacity=".28"/>
      <stop offset="100%" stop-color="#c9973a" stop-opacity="0"/>
    </radialGradient>
  </defs>
  <rect width="1200" height="630" fill="url(#bg)"/>
  <rect width="1200" height="630" fill="url(#glow-teal)"/>
  <rect width="1200" height="630" fill="url(#glow-gold)"/>
  <rect x="56" y="56" width="1088" height="518" rx="28" fill="rgba(255,255,255,.04)" stroke="rgba(255,255,255,.08)"/>

  <rect x="96" y="118" width="112" height="112" rx="24" fill="url(#gold)"/>
  <g fill="#0d1f2d" transform="translate(126, 148)">
    <ellipse cx="23" cy="20" rx="11" ry="12"/>
    <ellipse cx="45" cy="12" rx="8" ry="9"/>
    <ellipse cx="58" cy="26" rx="8" ry="9"/>
    <ellipse cx="53" cy="44" rx="8" ry="9"/>
    <path d="M23 32c-11 0-20 8-20 21 0 16 12 29 23 29s23-13 23-29c0-13-9-21-20-21z"/>
  </g>

  <text x="240" y="168" fill="#fffefb" font-family="Georgia, 'Times New Roman', serif" font-size="68" font-weight="700">Royal Pet Clinic</text>
  <text x="240" y="224" fill="#e8bb6e" font-family="Arial, Helvetica, sans-serif" font-size="28" font-weight="600" letter-spacing=".12em">VETERINARY MANAGEMENT SYSTEM</text>
  <text x="240" y="286" fill="#b0bcc8" font-family="Arial, Helvetica, sans-serif" font-size="30">Queue · Consultation · Billing · Vaccination · Inventory</text>

  <g transform="translate(240, 340)">
    <rect width="220" height="54" rx="12" fill="rgba(201,151,58,.15)" stroke="#c9973a"/>
    <text x="110" y="35" text-anchor="middle" fill="#e8bb6e" font-family="Arial, Helvetica, sans-serif" font-size="22" font-weight="700">Staff &amp; Owner Portal</text>
  </g>
  <g transform="translate(480, 340)">
    <rect width="250" height="54" rx="12" fill="rgba(45,156,156,.15)" stroke="#2d9c9c"/>
    <text x="125" y="35" text-anchor="middle" fill="#8fd9d9" font-family="Arial, Helvetica, sans-serif" font-size="22" font-weight="700">Role-Based Dashboards</text>
  </g>

  <text x="96" y="560" fill="#8a9aaa" font-family="Arial, Helvetica, sans-serif" font-size="24">Appointments · Medical Records · Prescriptions · Analytics</text>
  <text x="1104" y="560" text-anchor="end" fill="#c9973a" font-family="Georgia, serif" font-size="24" font-weight="700">royalpetclinic.in</text>
</svg>
